<?xml version="1.0" encoding="UTF-8" standalone="no"?>
<svg
   xmlns:osb="http://www.openswatchbook.org/uri/2009/osb"
   xmlns:dc="http://purl.org/dc/elements/1.1/"
   xmlns:cc="http://creativecommons.org/ns#"
   xmlns:rdf="http://www.w3.org/1999/02/22-rdf-syntax-ns#"
   xmlns:svg="http://www.w3.org/2000/svg"
   xmlns="http://www.w3.org/2000/svg"
   xmlns:sodipodi="http://sodipodi.sourceforge.net/DTD/sodipodi-0.dtd"
   xmlns:inkscape="http://www.inkscape.org/namespaces/inkscape"
   width="210mm"
   height="297mm"
   viewBox="0 0 210 297"
   version="1.1"
   id="svg8"
   sodipodi:docname="drawing.svg"
   inkscape:version="1.0 (4035a4f, 2020-05-01)">
  <defs
     id="defs2">
    <inkscape:path-effect
       lpeversion="1"
       is_visible="true"
       id="path-effect994"
       effect="spiro" />
    <inkscape:path-effect
       effect="spiro"
       id="path-effect965"
       is_visible="true"
       lpeversion="1" />
    <inkscape:path-effect
       effect="spiro"
       id="path-effect961"
       is_visible="true"
       lpeversion="1" />
    <inkscape:path-effect
       lpeversion="1"
       is_visible="true"
       id="path-effect953"
       effect="spiro" />
    <inkscape:path-effect
       lpeversion="1"
       is_visible="true"
       id="path-effect3147"
       effect="spiro" />
    <inkscape:path-effect
       effect="spiro"
       id="path-effect3123"
       is_visible="true"
       lpeversion="1" />
    <linearGradient
       id="linearGradient3037"
       osb:paint="solid">
      <stop
         style="stop-color:#000000;stop-opacity:1;"
         offset="0"
         id="stop3035" />
    </linearGradient>
    <linearGradient
       id="linearGradient3031"
       osb:paint="solid">
      <stop
         style="stop-color:#080000;stop-opacity:1;"
         offset="0"
         id="stop3029" />
    </linearGradient>
    <inkscape:path-effect
       lpeversion="1"
       is_visible="true"
       id="path-effect997"
       effect="spiro" />
    <inkscape:path-effect
       effect="spiro"
       id="path-effect978"
       is_visible="true"
       lpeversion="1" />
    <inkscape:path-effect
       effect="spiro"
       id="path-effect974"
       is_visible="true"
       lpeversion="1" />
    <inkscape:path-effect
       effect="spiro"
       id="path-effect835"
       is_visible="true"
       lpeversion="1" />
    <filter
       id="filter929"
       style="color-interpolation-filters:sRGB;"
       inkscape:menu-tooltip="A volcanic texture, a little like leather"
       inkscape:menu="Materials"
       inkscape:label="Cracked Lava">
      <feGaussianBlur
         id="feGaussianBlur897"
         stdDeviation="0.5"
         in="SourceGraphic"
         result="result0" />
      <feTurbulence
         id="feTurbulence899"
         result="result1"
         numOctaves="7"
         seed="488"
         baseFrequency="0.042" />
      <feDisplacementMap
         id="feDisplacementMap901"
         yChannelSelector="G"
         in="result1"
         in2="result1"
         scale="0"
         xChannelSelector="R"
         result="result5" />
      <feComposite
         id="feComposite903"
         in="result0"
         in2="result5"
         operator="in"
         result="result2" />
      <feSpecularLighting
         id="feSpecularLighting907"
         in="result2"
         specularExponent="65"
         specularConstant="2"
         result="result4"
         surfaceScale="2"
         lighting-color="rgb(255,230,136)">
        <feDistantLight
           id="feDistantLight905"
           azimuth="225"
           elevation="62" />
      </feSpecularLighting>
      <feComposite
         id="feComposite909"
         result="result91"
         operator="arithmetic"
         in="result4"
         in2="result2"
         k2="-0.5"
         k3="1"
         k1="2.5" />
      <feBlend
         id="feBlend911"
         in2="result91"
         mode="multiply"
         result="fbSourceGraphic" />
      <feColorMatrix
         id="feColorMatrix913"
         result="fbSourceGraphicAlpha"
         in="fbSourceGraphic"
         values="1 0 0 -1 0 1 0 1 -1 0 1 0 0 -1 0 -2 -0.5 0 5 -2" />
      <feGaussianBlur
         id="feGaussianBlur915"
         result="result0"
         in="fbSourceGraphicAlpha"
         stdDeviation="8" />
      <feOffset
         id="feOffset917"
         result="result3"
         in="result0"
         dy="2"
         dx="2" />
      <feSpecularLighting
         id="feSpecularLighting921"
         specularExponent="15"
         specularConstant="0.8"
         surfaceScale="4"
         lighting-color="rgb(255,255,255)"
         result="result1"
         in="result0">
        <fePointLight
           id="fePointLight919"
           z="20000"
           y="-10000"
           x="-5000" />
      </feSpecularLighting>
      <feComposite
         id="feComposite923"
         operator="in"
         result="result2"
         in="result1"
         in2="fbSourceGraphicAlpha" />
      <feComposite
         id="feComposite925"
         in2="result2"
         k3="2"
         k2="2"
         operator="arithmetic"
         result="result4"
         in="fbSourceGraphic" />
      <feBlend
         id="feBlend927"
         in2="result4"
         mode="darken" />
    </filter>
    <filter
       style="color-interpolation-filters:sRGB;"
       inkscape:label="Duochrome"
       id="filter981">
      <feColorMatrix
         type="luminanceToAlpha"
         result="colormatrix1"
         id="feColorMatrix961" />
      <feFlood
         flood-opacity="1"
         flood-color="rgb(13,0,226)"
         result="flood1"
         id="feFlood963" />
      <feComposite
         in2="colormatrix1"
         operator="out"
         result="composite1"
         id="feComposite965" />
      <feFlood
         flood-opacity="1"
         flood-color="rgb(255,255,0)"
         result="flood2"
         id="feFlood967" />
      <feComposite
         in2="colormatrix1"
         result="composite2"
         operator="in"
         id="feComposite969" />
      <feComposite
         in="composite2"
         in2="composite1"
         k2="1"
         k3="1"
         operator="arithmetic"
         result="composite3"
         id="feComposite971" />
      <feColorMatrix
         in="composite3"
         type="matrix"
         values="2 -1 0 0 0 0 2 -1 0 0 -1 0 2 0 0 0 0 0 1 0 "
         result="colormatrix2"
         id="feColorMatrix973" />
      <feComposite
         in="colormatrix2"
         in2="composite3"
         operator="arithmetic"
         k2="0.676647"
         result="composite4"
         id="feComposite975" />
      <feBlend
         in="composite4"
         in2="composite3"
         mode="normal"
         result="blend"
         id="feBlend977" />
      <feComposite
         in2="SourceGraphic"
         operator="in"
         id="feComposite979"
         result="fbSourceGraphic" />
      <feColorMatrix
         result="fbSourceGraphicAlpha"
         in="fbSourceGraphic"
         values="0 0 0 -1 0 0 0 0 -1 0 0 0 0 -1 0 0 0 0 1 0"
         id="feColorMatrix983" />
      <feColorMatrix
         id="feColorMatrix985"
         type="luminanceToAlpha"
         result="colormatrix1"
         in="fbSourceGraphic" />
      <feFlood
         id="feFlood987"
         flood-opacity="1"
         flood-color="rgb(13,0,226)"
         result="flood1" />
      <feComposite
         in2="colormatrix1"
         id="feComposite989"
         operator="out"
         result="composite1" />
      <feFlood
         id="feFlood991"
         flood-opacity="1"
         flood-color="rgb(255,255,0)"
         result="flood2" />
      <feComposite
         in2="colormatrix1"
         id="feComposite993"
         result="composite2"
         operator="in" />
      <feComposite
         in2="composite1"
         id="feComposite995"
         in="composite2"
         k2="1"
         k3="1"
         operator="arithmetic"
         result="composite3" />
      <feColorMatrix
         id="feColorMatrix997"
         in="composite3"
         type="matrix"
         values="2 -1 0 0 0 0 2 -1 0 0 -1 0 2 0 0 0 0 0 1 0 "
         result="colormatrix2" />
      <feComposite
         in2="composite3"
         id="feComposite999"
         in="colormatrix2"
         operator="arithmetic"
         k2="0.676647"
         result="composite4" />
      <feBlend
         in2="composite3"
         id="feBlend1001"
         in="composite4"
         mode="normal"
         result="blend" />
      <feComposite
         in2="fbSourceGraphic"
         id="feComposite1003"
         operator="in" />
    </filter>
  </defs>
  <sodipodi:namedview
     id="base"
     pagecolor="#ffffff"
     bordercolor="#666666"
     borderopacity="1.0"
     inkscape:pageopacity="0.0"
     inkscape:pageshadow="2"
     inkscape:zoom="0.69924263"
     inkscape:cx="1008.1985"
     inkscape:cy="604.6681"
     inkscape:document-units="mm"
     inkscape:current-layer="layer1"
     inkscape:document-rotation="0"
     showgrid="false"
     inkscape:window-width="2108"
     inkscape:window-height="1315"
     inkscape:window-x="304"
     inkscape:window-y="70"
     inkscape:window-maximized="0" />
  <metadata
     id="metadata5">
    <rdf:RDF>
      <cc:Work
         rdf:about="">
        <dc:format>image/svg+xml</dc:format>
        <dc:type
           rdf:resource="http://purl.org/dc/dcmitype/StillImage" />
      </cc:Work>
    </rdf:RDF>
  </metadata>
  <g
     inkscape:label="Layer 1"
     inkscape:groupmode="layer"
     id="layer1">
    <rect
       style="fill:#1c0b1e;fill-opacity:1;fill-rule:evenodd;stroke-width:0.279703"
       id="rect839"
       width="214.69046"
       height="305.45816"
       x="-0.75595242"
       y="-8.3154764" />
    <path
       style="fill:#ffc107;stroke:#000000;stroke-width:0.264583px;stroke-linecap:butt;stroke-linejoin:miter;stroke-opacity:1"
       d="m 0.5291667,71.287272 c 3.197665,3.977087 7.7694913,7.050217 12.8458683,7.572404 2.538188,0.261094 5.156887,-0.128605 7.457682,-1.231743 2.300795,-1.103138 4.26782,-2.932262 5.42667,-5.205506 0.256243,-0.502656 0.473564,-1.025567 0.75677,-1.513541 0.546224,-0.941165 1.332175,-1.735432 2.241574,-2.333049 0.909398,-0.597617 1.94012,-1.001335 3.004228,-1.22899 2.128216,-0.455308 4.35409,-0.208556 6.461865,0.333562 4.21555,1.084236 8.164555,3.33827 12.50901,3.606863 3.67304,0.227083 7.319598,-1.013059 10.484311,-2.89119 3.164714,-1.878132 5.911211,-4.37388 8.605267,-6.88084 2.694057,-2.50696 5.378531,-5.058094 8.457191,-7.07419 3.07866,-2.016095 6.613043,-3.488614 10.291791,-3.586604 2.874926,-0.07658 5.729553,0.690674 8.333716,1.911084 2.60416,1.22041 4.97684,2.884222 7.23359,4.666966 4.51348,3.565489 8.70823,7.695635 13.94677,10.070917 5.89819,2.674383 12.63657,2.881153 19.06959,2.134697 6.43302,-0.746457 12.73094,-2.392014 19.14735,-3.269855 6.48979,-0.887881 13.13576,-0.97983 19.55523,0.322504 6.41948,1.302334 12.61576,4.045645 17.52656,8.380364 2.89379,2.554325 5.29521,5.607033 7.88242,8.471461 2.58721,2.864428 5.43736,5.598236 8.915,7.272932 1.73882,0.837348 3.6229,1.396923 5.54845,1.526921 1.92555,0.129997 3.89334,-0.17893 5.6402,-0.999362 1.74687,-0.820432 3.2625,-2.164224 4.18794,-3.8578 0.92545,-1.693576 1.23536,-3.736467 0.74554,-5.60321 -0.541,-2.061788 -1.97772,-3.765501 -3.50598,-5.251454 -1.52826,-1.485953 -3.20478,-2.84945 -4.44012,-4.586572 -1.967,-2.765981 -2.65103,-6.281485 -2.54412,-9.673874 0.10692,-3.392388 0.94673,-6.71385 1.78735,-10.002175 2.33579,-9.137068 4.71847,-18.286312 6.05417,-27.622148 0.8499,-5.940368 1.26593,-12.045788 -0.044,-17.9019212 -0.65499,-2.9280664 -1.74425,-5.7721958 -3.35108,-8.3061043 -1.60682,-2.5339085 -3.74031,-4.7525902 -6.29625,-6.324128 -4.83574,-2.9732835 -10.75115,-3.4461845 -16.41724,-3.7928625 -21.2894,-1.302586 -42.64945,-1.9155 -63.94716,-0.756771 -28.30118,1.539762 -56.939344,6.1816278 -84.758373,0.756771 -8.56201,-1.669637 -17.001369,-4.289007 -25.716845,-4.658038 -4.357738,-0.184516 -8.772295,0.207974 -12.925366,1.540612 -4.1530718,1.332639 -8.0417653,3.637964 -10.92548176,6.9102885 C -1.9921486,-5.7830473 -3.3598698,-3.4478518 -4.3898459,-0.98437563 -6.4081528,3.8429703 -7.1321918,9.1215094 -7.3019256,14.351043 c -0.1697338,5.229534 0.1954355,10.460353 0.2633807,15.692199 0.092686,7.136894 -0.3668997,14.298258 0.3565278,21.398998 0.7234276,7.100739 2.7387974,14.282514 7.2111838,19.845032 z"
       id="path963"
       inkscape:path-effect="#path-effect965"
       inkscape:original-d="m 0.5291667,71.287272 c 2.522306,13.747744 17.1537443,0.757033 25.7302203,1.135155 8.576475,0.378121 0.504778,-1.008764 0.75677,-1.513541 0.251992,-0.50478 16.144716,0.252521 24.216677,0.378386 8.071961,0.125862 25.22597,-13.621618 37.83856,-20.432824 12.612586,-6.811203 19.676316,11.099575 29.514076,16.648967 9.83776,5.549389 25.47823,-0.756507 38.21694,-1.135158 12.73872,-0.37865 24.72146,5.802178 37.08179,8.702868 12.36033,2.900694 21.94663,4.540893 32.91955,6.810942 10.97292,2.270048 -5.29714,-6.558418 -7.9461,-9.838026 -2.64896,-3.279606 -0.50425,-13.117102 -0.75677,-19.676049 -0.25252,-6.558949 4.03638,-18.4145 6.05417,-27.622148 2.01779,-9.207647 -6.46065,-21.6878379 -9.69137,-32.5321535 -3.23073,-10.8443155 -10.94456,-2.5283105 -16.41724,-3.7928625 -5.47267,-1.264552 -42.63118,-0.504249 -63.94716,-0.756771 -21.31599,-0.252521 -56.505318,0.504779 -84.758373,0.756771 -28.253055,0.251993 -33.044864,2.5288394 -49.56769276,3.7928625 C -16.749614,-6.5222868 -3.0018944,-3.2514224 -4.3898459,-0.98437563 -5.7777972,1.2826711 -6.1553806,19.700968 -7.0385449,30.043242 c -0.8831644,10.342274 5.0454056,27.496282 7.5677116,41.24403 z" />
    <path
       inkscape:original-d="m 0,70.758105 c 2.522306,13.747744 17.153744,0.757033 25.73022,1.135155 8.576475,0.378121 0.504778,-1.008764 0.75677,-1.513541 0.251992,-0.50478 16.144716,0.252521 24.216677,0.378386 8.071961,0.125862 25.22597,-13.621618 37.83856,-20.432824 12.612583,-6.811203 19.676313,11.099575 29.514073,16.648967 9.83776,5.549389 25.47823,-0.756507 38.21694,-1.135158 12.73872,-0.37865 24.72146,5.802178 37.08179,8.702868 12.36033,2.900694 21.94663,4.540893 32.91955,6.810942 10.97292,2.270048 -5.29714,-6.558418 -7.9461,-9.838026 -2.64896,-3.279606 -0.50425,-13.117102 -0.75677,-19.676049 -0.25252,-6.558949 4.03638,-18.4145 6.05417,-27.622148 2.01779,-9.207647 -6.46065,-21.6878376 -9.69137,-32.5321532 -3.23073,-10.8443158 -10.94456,-2.5283108 -16.41724,-3.7928628 -5.47267,-1.264552 -42.63118,-0.504249 -63.94716,-0.756771 -21.31599,-0.252521 -56.505315,0.504779 -84.75837,0.756771 -28.253055,0.251993 -33.044864,2.5288397 -49.56769241,3.7928628 C -17.278781,-7.0514535 -3.5310611,-3.7805891 -4.9190126,-1.5135423 -6.3069639,0.75350443 -6.6845473,19.171801 -7.5677116,29.514075 -8.450876,39.856349 -2.522306,57.010357 0,70.758105 Z"
       inkscape:path-effect="#path-effect953"
       id="path951"
       d="m 0,70.758105 c 3.197665,3.977087 7.7694912,7.050217 12.845868,7.572404 2.538188,0.261094 5.156887,-0.128605 7.457682,-1.231743 2.300795,-1.103138 4.26782,-2.932262 5.42667,-5.205506 0.256243,-0.502656 0.473564,-1.025567 0.75677,-1.513541 0.546224,-0.941165 1.332175,-1.735432 2.241574,-2.333049 0.909398,-0.597617 1.94012,-1.001335 3.004228,-1.22899 2.128216,-0.455308 4.35409,-0.208556 6.461865,0.333562 4.21555,1.084236 8.164555,3.33827 12.50901,3.606863 3.67304,0.227083 7.319598,-1.013059 10.484311,-2.891191 3.164714,-1.878132 5.911211,-4.373879 8.605267,-6.880839 2.694057,-2.506961 5.378531,-5.058094 8.457191,-7.07419 3.07866,-2.016096 6.613043,-3.488614 10.291791,-3.586604 2.874926,-0.07658 5.729552,0.690674 8.333715,1.911084 2.604163,1.22041 4.976848,2.884222 7.233588,4.666967 4.51348,3.565489 8.70823,7.695634 13.94677,10.070916 5.89819,2.674383 12.63657,2.881153 19.06959,2.134697 6.43302,-0.746457 12.73094,-2.392014 19.14735,-3.269855 6.48979,-0.887881 13.13576,-0.97983 19.55523,0.322504 6.41948,1.302334 12.61576,4.045645 17.52656,8.380364 2.89379,2.554325 5.29521,5.607033 7.88242,8.471461 2.58721,2.864428 5.43736,5.598236 8.915,7.272932 1.73882,0.837348 3.6229,1.396923 5.54845,1.526921 1.92555,0.129997 3.89334,-0.17893 5.6402,-0.999362 1.74687,-0.820432 3.2625,-2.164224 4.18794,-3.8578 0.92545,-1.693576 1.23536,-3.736467 0.74554,-5.60321 -0.541,-2.061788 -1.97772,-3.765501 -3.50598,-5.251454 -1.52826,-1.485953 -3.20478,-2.84945 -4.44012,-4.586572 -1.967,-2.765981 -2.65103,-6.281485 -2.54412,-9.673874 0.10692,-3.392388 0.94673,-6.71385 1.78735,-10.002175 2.33579,-9.137068 4.71847,-18.286312 6.05417,-27.622148 0.8499,-5.940368 1.26593,-12.045788 -0.044,-17.901921 -0.65499,-2.9280664 -1.74425,-5.77219574 -3.35108,-8.3061042 -1.60682,-2.5339085 -3.74031,-4.7525902 -6.29625,-6.324128 -4.83574,-2.9732838 -10.75115,-3.4461848 -16.41724,-3.7928628 -21.2894,-1.302587 -42.64945,-1.9155 -63.94716,-0.756771 -28.30118,1.539762 -56.939342,6.1816274 -84.75837,0.756771 -8.56201,-1.669637 -17.001369,-4.289007 -25.716845,-4.658038 -4.357738,-0.184516 -8.772295,0.207974 -12.925366,1.540613 -4.1530715,1.332638 -8.041765,3.637963 -10.92548141,6.9102878 -1.76536289,2.0032622 -3.13308409,4.3384577 -4.16306019,6.8019339 -2.0183068,4.8273459 -2.7423459,10.1058849 -2.9120797,15.3354183 -0.1697338,5.229534 0.1954355,10.460353 0.2633807,15.692199 0.092686,7.136894 -0.3668997,14.298258 0.3565278,21.398998 C -6.4877562,58.013812 -4.4723864,65.195587 0,70.758105 Z"
       style="fill:#4b0dce;stroke:#000000;stroke-width:0.26458300000000001px;stroke-linecap:butt;stroke-linejoin:miter;stroke-opacity:1;fill-opacity:1" />
    <path
       inkscape:original-d="m 212.83976,208.41987 c -3.41959,-13.38917 -17.16643,0.36651 -25.74923,0.55013 -8.58279,0.18362 -0.43745,1.02722 -0.65575,1.54118 -0.2183,0.51397 -16.12645,0.79841 -24.18926,1.19798 -8.0628,0.39957 -24.27707,15.06495 -36.41519,22.59777 -12.13812,7.53284 -20.3627,-9.66571 -30.543586,-14.49822 -10.180863,-4.8325 -25.373426,2.39862 -38.059776,3.5983 -12.686363,1.19969 -25.049099,-4.11615 -37.573224,-6.17385 -12.5241227,-2.05774 -22.1974297,-3.05278 -33.295724,-4.57879 -11.0983,-1.52603 5.7163583,6.12178 8.5749513,9.18304 2.858593,3.06125 1.36448,12.89839 2.047141,19.34795 0.682661,6.44956 -2.8185,18.41523 -4.227324,27.62323 -1.408826,9.20799 7.87080903,20.96118 11.8066325,31.44213 3.9358359,10.48098 11.0869542,1.78246 16.6308592,2.67406 5.543894,0.89159 42.572284,-2.26851 63.858751,-3.40238 21.286479,-1.1339 56.350139,-4.16328 84.525659,-6.24457 28.17554,-2.08125 32.8075,-4.63669 49.21167,-6.95467 16.40416,-2.31798 2.47134,-4.65061 3.70743,-6.97555 1.23609,-2.32493 0.40345,-20.50656 0.60559,-30.75949 0.20214,-10.2529 -6.84003,-26.77907 -10.25962,-40.16825 z"
       inkscape:path-effect="#path-effect994"
       id="path992"
       d="m 212.83976,208.41987 c -3.44985,-3.75474 -8.21328,-6.51223 -13.30887,-6.69798 -2.54779,-0.0929 -5.13266,0.46681 -7.35589,1.71468 -2.22322,1.24786 -4.06843,3.19515 -5.08447,5.53343 -0.22255,0.51217 -0.40598,1.04172 -0.65575,1.54118 -0.48652,0.97289 -1.22052,1.81458 -2.08973,2.46856 -0.86922,0.65398 -1.87138,1.12285 -2.91811,1.41878 -2.09346,0.59187 -4.32952,0.49184 -6.46761,0.09 -4.27617,-0.80369 -8.36278,-2.78955 -12.71381,-2.77936 -3.66579,0.009 -7.21381,1.46147 -10.25011,3.51548 -3.03631,2.05401 -5.62411,4.69325 -8.15877,7.34156 -2.53467,2.64832 -5.05613,5.34032 -7.99644,7.52954 -2.94031,2.18921 -6.35985,3.87143 -10.00987,4.21119 -2.85634,0.26588 -5.74826,-0.30165 -8.42493,-1.33355 -2.67667,-1.0319 -5.15593,-2.51746 -7.52906,-4.12919 -4.74625,-3.22344 -9.21493,-7.02787 -14.589596,-9.03548 -6.06479,-2.2654 -12.795599,-2.03811 -19.166189,-0.88517 -6.37059,1.15294 -12.550128,3.18955 -18.893587,4.48347 -6.415113,1.30853 -13.035052,1.84987 -19.525432,0.98912 -6.490381,-0.86075 -12.858511,-3.17081 -18.047792,-7.16297 -3.06518,-2.35807 -5.668366,-5.2511 -8.444234,-7.94375 -2.7758689,-2.69266 -5.8060928,-5.23795 -9.3947982,-6.67914 -1.79435273,-0.72059 -3.7157675,-1.15283 -5.6494044,-1.15127 -1.9336368,0.002 -3.8796008,0.44643 -5.5679496,1.389 -1.6883488,0.94256 -3.1077768,2.39407 -3.9095728,4.15364 -0.801796,1.75957 -0.960324,3.82479 -0.329765,5.65273 0.690443,2.00153 2.237312,3.58352 3.8571284,4.94698 1.619816,1.36347 3.3757776,2.59845 4.7178229,4.23606 2.126257,2.59453 3.0373796,6.01549 3.1571053,9.36783 0.1197258,3.35235 -0.4910354,6.68323 -1.1099643,9.98012 -1.7196283,9.16006 -3.5252709,18.32963 -4.227324,27.62323 -0.4472273,5.92028 -0.4300824,11.97638 1.273576,17.66385 0.8518293,2.84373 2.1263629,5.57388 3.8877274,7.96344 1.76136459,2.38957 4.0179284,4.4331 6.6453291,5.81484 5.0228009,2.64147 10.9559482,2.70956 16.6308592,2.67406 21.327418,-0.13341 42.680721,-0.87897 63.858751,-3.40238 28.141619,-3.35313 56.414989,-9.8479 84.525659,-6.24457 8.64752,1.10847 17.23387,3.17163 25.95005,2.98012 4.35809,-0.0958 8.73567,-0.76864 12.79397,-2.35995 4.0583,-1.59132 7.7925,-4.13309 10.46765,-7.57484 1.62314,-2.08828 2.83812,-4.47759 3.70743,-6.97555 1.69947,-4.88341 2.08091,-10.13709 1.90868,-15.3049 -0.17224,-5.16781 -0.88166,-10.30111 -1.30309,-15.45459 -0.57504,-7.03186 -0.61632,-14.12481 -1.81532,-21.07751 -1.199,-6.95271 -3.67083,-13.8954 -8.4443,-19.09074 z"
       style="fill:#f505cc;stroke:#000000;stroke-width:0.26458300000000001px;stroke-linecap:butt;stroke-linejoin:miter;stroke-opacity:1;fill-opacity:1" />
    <path
       style="fill:#560dcb;stroke:#000000;stroke-width:0.264583px;stroke-linecap:butt;stroke-linejoin:miter;stroke-opacity:1"
       d="m 212.83976,208.94904 c -3.44985,-3.75474 -8.21328,-6.51223 -13.30887,-6.69798 -2.54779,-0.0929 -5.13266,0.46681 -7.35589,1.71468 -2.22322,1.24786 -4.06843,3.19515 -5.08447,5.53343 -0.22255,0.51217 -0.40598,1.04172 -0.65575,1.54118 -0.48652,0.97289 -1.22052,1.81458 -2.08973,2.46856 -0.86922,0.65398 -1.87138,1.12285 -2.91811,1.41878 -2.09346,0.59187 -4.32952,0.49184 -6.46761,0.09 -4.27617,-0.80369 -8.36278,-2.78955 -12.71381,-2.77936 -3.66579,0.009 -7.21381,1.46147 -10.25011,3.51548 -3.03631,2.05401 -5.62411,4.69325 -8.15877,7.34156 -2.53467,2.64832 -5.05613,5.34032 -7.99644,7.52954 -2.94031,2.18921 -6.35985,3.87143 -10.00987,4.21119 -2.85634,0.26588 -5.74826,-0.30165 -8.42493,-1.33355 -2.67667,-1.0319 -5.15593,-2.51746 -7.52906,-4.12919 -4.74625,-3.22344 -9.21493,-7.02787 -14.589596,-9.03548 -6.06479,-2.2654 -12.795599,-2.03811 -19.166189,-0.88517 -6.37059,1.15294 -12.550128,3.18955 -18.893587,4.48347 -6.415113,1.30853 -13.035052,1.84987 -19.525432,0.98912 -6.490381,-0.86075 -12.858511,-3.17081 -18.047792,-7.16297 -3.06518,-2.35807 -5.668366,-5.2511 -8.444234,-7.94375 -2.7758689,-2.69266 -5.8060928,-5.23795 -9.3947982,-6.67914 -1.79435273,-0.72059 -3.7157675,-1.15283 -5.6494044,-1.15127 -1.9336368,0.002 -3.8796008,0.44643 -5.5679496,1.389 -1.6883488,0.94256 -3.1077768,2.39407 -3.9095728,4.15364 -0.801796,1.75957 -0.960324,3.82479 -0.329765,5.65273 0.690443,2.00153 2.237312,3.58352 3.8571284,4.94698 1.619816,1.36347 3.3757776,2.59845 4.7178229,4.23606 2.126257,2.59453 3.0373796,6.01549 3.1571053,9.36783 0.1197258,3.35235 -0.4910354,6.68323 -1.1099643,9.98012 -1.7196283,9.16006 -3.5252709,18.32963 -4.227324,27.62323 -0.4472273,5.92028 -0.4300824,11.97638 1.273576,17.66385 0.8518293,2.84373 2.1263629,5.57388 3.8877274,7.96344 1.76136459,2.38957 4.0179284,4.4331 6.6453291,5.81484 5.0228009,2.64147 10.9559482,2.70956 16.6308592,2.67406 21.327418,-0.13341 42.680721,-0.87897 63.858751,-3.40238 28.141619,-3.35313 56.414989,-9.8479 84.525659,-6.24457 8.64752,1.10847 17.23387,3.17163 25.95005,2.98012 4.35809,-0.0958 8.73567,-0.76864 12.79397,-2.35995 4.0583,-1.59132 7.7925,-4.13309 10.46765,-7.57484 1.62314,-2.08828 2.83812,-4.47759 3.70743,-6.97555 1.69947,-4.88341 2.08091,-10.13709 1.90868,-15.3049 -0.17224,-5.16781 -0.88166,-10.30111 -1.30309,-15.45459 -0.57504,-7.03186 -0.61632,-14.12481 -1.81532,-21.07751 -1.199,-6.95271 -3.67083,-13.8954 -8.4443,-19.09074 z"
       id="path959"
       inkscape:path-effect="#path-effect961"
       inkscape:original-d="m 212.83976,208.94904 c -3.41959,-13.38917 -17.16643,0.36651 -25.74923,0.55013 -8.58279,0.18362 -0.43745,1.02722 -0.65575,1.54118 -0.2183,0.51397 -16.12645,0.79841 -24.18926,1.19798 -8.0628,0.39957 -24.27707,15.06495 -36.41519,22.59777 -12.13812,7.53284 -20.3627,-9.66571 -30.543586,-14.49822 -10.180863,-4.8325 -25.373426,2.39862 -38.059776,3.5983 -12.686363,1.19969 -25.049099,-4.11615 -37.573224,-6.17385 -12.5241227,-2.05774 -22.1974297,-3.05278 -33.295724,-4.57879 -11.0983,-1.52603 5.7163583,6.12178 8.5749513,9.18304 2.858593,3.06125 1.36448,12.89839 2.047141,19.34795 0.682661,6.44956 -2.8185,18.41523 -4.227324,27.62323 -1.408826,9.20799 7.87080899,20.96118 11.8066325,31.44213 3.9358359,10.48098 11.0869542,1.78246 16.6308592,2.67406 5.543894,0.89159 42.572284,-2.26851 63.858751,-3.40238 21.286479,-1.1339 56.350139,-4.16328 84.525659,-6.24457 28.17554,-2.08125 32.8075,-4.63669 49.21167,-6.95467 16.40416,-2.31798 2.47134,-4.65061 3.70743,-6.97555 1.23609,-2.32493 0.40345,-20.50656 0.60559,-30.75949 0.20214,-10.2529 -6.84003,-26.77907 -10.25962,-40.16825 z" />
  </g>
</svg>
