<?xml version="1.0" encoding="UTF-8" standalone="no"?>
<svg
   xmlns:osb="http://www.openswatchbook.org/uri/2009/osb"
   xmlns:dc="http://purl.org/dc/elements/1.1/"
   xmlns:cc="http://creativecommons.org/ns#"
   xmlns:rdf="http://www.w3.org/1999/02/22-rdf-syntax-ns#"
   xmlns:svg="http://www.w3.org/2000/svg"
   xmlns="http://www.w3.org/2000/svg"
   xmlns:sodipodi="http://sodipodi.sourceforge.net/DTD/sodipodi-0.dtd"
   xmlns:inkscape="http://www.inkscape.org/namespaces/inkscape"
   width="210mm"
   height="297mm"
   viewBox="0 0 210 297"
   version="1.1"
   id="svg8"
   sodipodi:docname="drawing.svg"
   inkscape:version="1.0 (4035a4f, 2020-05-01)">
  <defs
     id="defs2">
    <inkscape:path-effect
       lpeversion="1"
       is_visible="true"
       id="path-effect994"
       effect="spiro" />
    <inkscape:path-effect
       effect="spiro"
       id="path-effect965"
       is_visible="true"
       lpeversion="1" />
    <inkscape:path-effect
       effect="spiro"
       id="path-effect961"
       is_visible="true"
       lpeversion="1" />
    <inkscape:path-effect
       lpeversion="1"
       is_visible="true"
       id="path-effect953"
       effect="spiro" />
    <inkscape:path-effect
       lpeversion="1"
       is_visible="true"
       id="path-effect3147"
       effect="spiro" />
    <inkscape:path-effect
       effect="spiro"
       id="path-effect3123"
       is_visible="true"
       lpeversion="1" />
    <linearGradient
       id="linearGradient3037"
       osb:paint="solid">
      <stop
         style="stop-color:#000000;stop-opacity:1;"
         offset="0"
         id="stop3035" />
    </linearGradient>
    <linearGradient
       id="linearGradient3031"
       osb:paint="solid">
      <stop
         style="stop-color:#080000;stop-opacity:1;"
         offset="0"
         id="stop3029" />
    </linearGradient>
    <inkscape:path-effect
       lpeversion="1"
       is_visible="true"
       id="path-effect997"
       effect="spiro" />
    <inkscape:path-effect
       effect="spiro"
       id="path-effect978"
       is_visible="true"
       lpeversion="1" />
    <inkscape:path-effect
       effect="spiro"
       id="path-effect974"
       is_visible="true"
       lpeversion="1" />
    <inkscape:path-effect
       effect="spiro"
       id="path-effect835"
       is_visible="true"
       lpeversion="1" />
    <filter
       id="filter929"
       style="color-interpolation-filters:sRGB;"
       inkscape:menu-tooltip="A volcanic texture, a little like leather"
       inkscape:menu="Materials"
       inkscape:label="Cracked Lava">
      <feGaussianBlur
         id="feGaussianBlur897"
         stdDeviation="0.5"
         in="SourceGraphic"
         result="result0" />
      <feTurbulence
         id="feTurbulence899"
         result="result1"
         numOctaves="7"
         seed="488"
         baseFrequency="0.042" />
      <feDisplacementMap
         id="feDisplacementMap901"
         yChannelSelector="G"
         in="result1"
         in2="result1"
         scale="0"
         xChannelSelector="R"
         result="result5" />
      <feComposite
         id="feComposite903"
         in="result0"
         in2="result5"
         operator="in"
         result="result2" />
      <feSpecularLighting
         id="feSpecularLighting907"
         in="result2"
         specularExponent="65"
         specularConstant="2"
         result="result4"
         surfaceScale="2"
         lighting-color="rgb(255,230,136)">
        <feDistantLight
           id="feDistantLight905"
           azimuth="225"
           elevation="62" />
      </feSpecularLighting>
      <feComposite
         id="feComposite909"
         result="result91"
         operator="arithmetic"
         in="result4"
         in2="result2"
         k2="-0.5"
         k3="1"
         k1="2.5" />
      <feBlend
         id="feBlend911"
         in2="result91"
         mode="multiply"
         result="fbSourceGraphic" />
      <feColorMatrix
         id="feColorMatrix913"
         result="fbSourceGraphicAlpha"
         in="fbSourceGraphic"
         values="1 0 0 -1 0 1 0 1 -1 0 1 0 0 -1 0 -2 -0.5 0 5 -2" />
      <feGaussianBlur
         id="feGaussianBlur915"
         result="result0"
         in="fbSourceGraphicAlpha"
         stdDeviation="8" />
      <feOffset
         id="feOffset917"
         result="result3"
         in="result0"
         dy="2"
         dx="2" />
      <feSpecularLighting
         id="feSpecularLighting921"
         specularExponent="15"
         specularConstant="0.8"
         surfaceScale="4"
         lighting-color="rgb(255,255,255)"
         result="result1"
         in="result0">
        <fePointLight
           id="fePointLight919"
           z="20000"
           y="-10000"
           x="-5000" />
      </feSpecularLighting>
      <feComposite
         id="feComposite923"
         operator="in"
         result="result2"
         in="result1"
         in2="fbSourceGraphicAlpha" />
      <feComposite
         id="feComposite925"
         in2="result2"
         k3="2"
         k2="2"
         operator="arithmetic"
         result="result4"
         in="fbSourceGraphic" />
      <feBlend
         id="feBlend927"
         in2="result4"
         mode="darken" />
    </filter>
    <filter
       style="color-interpolation-filters:sRGB;"
       inkscape:label="Duochrome"
       id="filter981">
      <feColorMatrix
         type="luminanceToAlpha"
         result="colormatrix1"
         id="feColorMatrix961" />
      <feFlood
         flood-opacity="1"
         flood-color="rgb(13,0,226)"
         result="flood1"
         id="feFlood963" />
      <feComposite
         in2="colormatrix1"
         operator="out"
         result="composite1"
         id="feComposite965" />
      <feFlood
         flood-opacity="1"
         flood-color="rgb(255,255,0)"
         result="flood2"
         id="feFlood967" />
      <feComposite
         in2="colormatrix1"
         result="composite2"
         operator="in"
         id="feComposite969" />
      <feComposite
         in="composite2"
         in2="composite1"
         k2="1"
         k3="1"
         operator="arithmetic"
         result="composite3"
         id="feComposite971" />
      <feColorMatrix
         in="composite3"
         type="matrix"
         values="2 -1 0 0 0 0 2 -1 0 0 -1 0 2 0 0 0 0 0 1 0 "
         result="colormatrix2"
         id="feColorMatrix973" />
      <feComposite
         in="colormatrix2"
         in2="composite3"
         operator="arithmetic"
         k2="0.676647"
         result="composite4"
         id="feComposite975" />
      <feBlend
         in="composite4"
         in2="composite3"
         mode="normal"
         result="blend"
         id="feBlend977" />
      <feComposite
         in2="SourceGraphic"
         operator="in"
         id="feComposite979"
         result="fbSourceGraphic" />
      <feColorMatrix
         result="fbSourceGraphicAlpha"
         in="fbSourceGraphic"
         values="0 0 0 -1 0 0 0 0 -1 0 0 0 0 -1 0 0 0 0 1 0"
         id="feColorMatrix983" />
      <feColorMatrix
         id="feColorMatrix985"
         type="luminanceToAlpha"
         result="colormatrix1"
         in="fbSourceGraphic" />
      <feFlood
         id="feFlood987"
         flood-opacity="1"
         flood-color="rgb(13,0,226)"
         result="flood1" />
      <feComposite
         in2="colormatrix1"
         id="feComposite989"
         operator="out"
         result="composite1" />
      <feFlood
         id="feFlood991"
         flood-opacity="1"
         flood-color="rgb(255,255,0)"
         result="flood2" />
      <feComposite
         in2="colormatrix1"
         id="feComposite993"
         result="composite2"
         operator="in" />
      <feComposite
         in2="composite1"
         id="feComposite995"
         in="composite2"
         k2="1"
         k3="1"
         operator="arithmetic"
         result="composite3" />
      <feColorMatrix
         id="feColorMatrix997"
         in="composite3"
         type="matrix"
         values="2 -1 0 0 0 0 2 -1 0 0 -1 0 2 0 0 0 0 0 1 0 "
         result="colormatrix2" />
      <feComposite
         in2="composite3"
         id="feComposite999"
         in="colormatrix2"
         operator="arithmetic"
         k2="0.676647"
         result="composite4" />
      <feBlend
         in2="composite3"
         id="feBlend1001"
         in="composite4"
         mode="normal"
         result="blend" />
      <feComposite
         in2="fbSourceGraphic"
         id="feComposite1003"
         operator="in" />
    </filter>
  </defs>
  <sodipodi:namedview
     id="base"
     pagecolor="#ffffff"
     bordercolor="#666666"
     borderopacity="1.0"
     inkscape:pageopacity="0.0"
     inkscape:pageshadow="2"
     inkscape:zoom="1.9350486"
     inkscape:cx="435.39136"
     inkscape:cy="894.33023"
     inkscape:document-units="mm"
     inkscape:current-layer="layer1"
     inkscape:document-rotation="0"
     showgrid="false"
     inkscape:window-width="2108"
     inkscape:window-height="1315"
     inkscape:window-x="2741"
     inkscape:window-y="42"
     inkscape:window-maximized="0" />
  <metadata
     id="metadata5">
    <rdf:RDF>
      <cc:Work
         rdf:about="">
        <dc:format>image/svg+xml</dc:format>
        <dc:type
           rdf:resource="http://purl.org/dc/dcmitype/StillImage" />
      </cc:Work>
    </rdf:RDF>
  </metadata>
  <g
     inkscape:label="Layer 1"
     inkscape:groupmode="layer"
     id="layer1">
    <rect
       style="fill:#080f21;fill-opacity:1;fill-rule:evenodd;stroke-width:0.279703"
       id="rect839"
       width="214.69046"
       height="305.45816"
       x="-0.75595242"
       y="-8.3154764" />
    <path
       style="fill:#e55934;fill-opacity:0.98;stroke:#000000;stroke-width:0.264583px;stroke-linecap:butt;stroke-linejoin:miter;stroke-opacity:1"
       d="m 0.5291667,71.287272 c 3.2034793,3.954088 7.7749509,6.994711 12.8378463,7.5087 2.531447,0.256994 5.141317,-0.129709 7.439868,-1.22101 2.29855,-1.091301 4.270693,-2.899184 5.452506,-5.152535 0.262013,-0.499578 0.485391,-1.018988 0.75677,-1.513541 1.098756,-2.002342 2.972801,-3.529938 5.091464,-4.383111 2.118664,-0.853173 4.467791,-1.056653 6.734399,-0.775359 4.533215,0.562589 8.612127,2.970131 12.390814,5.536856 6.963757,4.730227 13.522501,10.240513 21.293971,13.476746 8.975254,3.737519 19.084303,4.179054 28.668345,2.544929 9.58404,-1.634125 18.72107,-5.253932 27.5085,-9.41389 9.17292,-4.342447 18.18691,-9.346321 28.09876,-11.5268 6.44653,-1.418153 13.19849,-1.591182 19.64822,-0.187646 6.44973,1.403536 12.58492,4.41173 17.43357,8.890514 2.85089,2.633413 5.22677,5.730052 7.8138,8.623089 2.58704,2.893038 5.46126,5.638016 8.9673,7.302364 1.75303,0.832175 3.65196,1.381045 5.58907,1.495869 1.93712,0.114825 3.91299,-0.213741 5.66189,-1.054551 1.74889,-0.840811 3.26037,-2.205466 4.17699,-3.915855 0.91661,-1.710389 1.21327,-3.76572 0.7105,-5.639974 -0.55211,-2.058171 -1.98904,-3.758136 -3.51552,-5.244997 -1.52647,-1.486862 -3.19865,-2.854279 -4.43058,-4.593029 -1.9618,-2.768906 -2.64424,-6.282866 -2.53829,-9.674664 0.10594,-3.391798 0.94278,-6.71322 1.78152,-10.001385 2.33098,-9.138244 4.71703,-18.286569 6.05417,-27.622148 0.85084,-5.940336 1.26697,-12.045934 -0.0432,-17.9021258 -0.65508,-2.9280958 -1.74452,-5.77222 -3.35151,-8.3060841 -1.60699,-2.5338641 -3.74062,-4.7524618 -6.29666,-6.3239436 -4.83582,-2.9731215 -10.75116,-3.4461125 -16.41724,-3.7928625 -21.28938,-1.302857 -42.64945,-1.915521 -63.94716,-0.756771 -28.30117,1.539788 -56.939285,6.1812762 -84.758373,0.756771 -8.561982,-1.66952 -17.001334,-4.288694 -25.716763,-4.657664 -4.357714,-0.184485 -8.772237,0.208 -12.925302,1.540575 -4.153065,1.332576 -8.0417812,3.637775 -10.92562776,6.9099515 C -1.9922454,-5.7831188 -3.3601107,-3.4479637 -4.3898459,-0.98437563 -6.4076266,3.84306 -7.1296169,9.1218534 -7.2984463,14.351296 c -0.1688293,5.229443 0.1960748,10.460168 0.2599014,15.691946 0.087096,7.139095 -0.385623,14.302327 0.3331124,21.405684 0.7187354,7.103357 2.7401974,14.290859 7.2345992,19.838346 z"
       id="path963"
       inkscape:path-effect="#path-effect965"
       inkscape:original-d="m 0.5291667,71.287272 c 2.522306,13.747744 17.1537443,0.757033 25.7302203,1.135155 8.576475,0.378121 0.504778,-1.008764 0.75677,-1.513541 0.251992,-0.50478 16.144716,0.252521 24.216677,0.378386 8.071961,0.125862 8.681381,20.287952 21.293971,13.476746 12.612586,-6.811203 46.339085,-12.418353 56.176845,-6.868961 9.83776,5.549389 15.36005,-11.148149 28.09876,-11.5268 12.73872,-0.37865 24.72146,5.802178 37.08179,8.702868 12.36033,2.900694 21.94663,4.540893 32.91955,6.810942 10.97292,2.270048 -5.29714,-6.558418 -7.9461,-9.838026 -2.64896,-3.279606 -0.50425,-13.117102 -0.75677,-19.676049 -0.25252,-6.558949 4.03638,-18.4145 6.05417,-27.622148 2.01779,-9.207647 -6.46065,-21.6878379 -9.69137,-32.5321535 -3.23073,-10.8443155 -10.94456,-2.5283105 -16.41724,-3.7928625 -5.47267,-1.264552 -42.63118,-0.504249 -63.94716,-0.756771 -21.31599,-0.252521 -56.505318,0.504779 -84.758373,0.756771 -28.253055,0.251993 -33.044864,2.5288394 -49.56769276,3.7928625 C -16.749614,-6.5222868 -3.0018944,-3.2514224 -4.3898459,-0.98437563 -5.7777972,1.2826711 -6.1553806,19.700968 -7.0385449,30.043242 c -0.8831644,10.342274 5.0454056,27.496282 7.5677116,41.24403 z"
       sodipodi:nodetypes="ssssssssssssssssssss" />
    <path
       inkscape:original-d="M 0.52916667,70.758105 C 3.0514727,84.505849 17.682911,71.515138 26.259387,71.89326 c 8.576475,0.378121 0.504778,-1.008764 0.75677,-1.513541 0.251992,-0.50478 16.144716,0.252521 24.216677,0.378386 8.071961,0.125862 14.287399,21.792005 26.899989,14.980799 12.612586,-6.811203 20.633441,-6.812334 30.471197,-1.262942 9.83776,5.549389 35.45968,-18.258221 48.19839,-18.636872 12.73872,-0.37865 24.72146,5.802178 37.08179,8.702868 12.36033,2.900694 21.94663,4.540893 32.91955,6.810942 10.97292,2.270048 -5.29714,-6.558418 -7.9461,-9.838026 -2.64896,-3.279606 -0.50425,-13.117102 -0.75677,-19.676049 -0.25252,-6.558949 4.03638,-18.4145 6.05417,-27.622148 2.01779,-9.207647 -6.46065,-21.6878376 -9.69137,-32.5321532 -3.23073,-10.8443158 -10.94456,-2.5283108 -16.41724,-3.7928628 -5.47267,-1.264552 -42.63118,-0.504249 -63.94716,-0.756771 -21.31599,-0.252521 -56.505318,0.504779 -84.758373,0.756771 -28.253055,0.251993 -33.044864,2.5288397 -49.56769274,3.7928628 -16.52282826,1.2640224 -2.77510866,4.5348876 -4.16306016,6.8019339 -1.3879513,2.26704678 -1.7655347,20.6853433 -2.648699,31.0276173 -0.8831644,10.342274 5.0454056,27.496282 7.56771157,41.24403 z"
       inkscape:path-effect="#path-effect953"
       id="path951"
       d="m 0.52916667,70.758105 c 3.20327823,3.95488 7.77476173,6.996623 12.83811933,7.510894 2.531679,0.257136 5.141852,-0.129669 7.44048,-1.221377 2.298628,-1.091708 4.270596,-2.900322 5.451621,-5.154362 0.261814,-0.499685 0.484981,-1.019211 0.75677,-1.513541 1.097765,-1.996617 2.97616,-3.512775 5.094639,-4.351593 2.118479,-0.838818 4.462895,-1.026277 6.722841,-0.73609 4.519893,0.580376 8.58256,2.976179 12.399197,5.466069 8.633143,5.632073 16.994059,12.130543 26.899989,14.980799 9.908001,2.850852 20.616589,1.767328 30.471197,-1.262942 16.49918,-5.073461 31.23898,-15.421049 48.19839,-18.636872 6.46634,-1.22614 13.17723,-1.369025 19.61531,-0.0022 6.43807,1.366801 12.59554,4.278938 17.46648,8.705093 2.8666,2.604835 5.25173,5.685525 7.83882,8.568151 2.58708,2.882626 5.45253,5.623507 8.94825,7.29159 1.74786,0.834042 3.64139,1.38679 5.57431,1.507117 1.93291,0.120327 3.90584,-0.201115 5.654,-1.034531 1.74816,-0.833416 3.26114,-2.1905 4.18095,-3.894782 0.91982,-1.704282 1.22129,-3.755088 0.72322,-5.626603 -0.54809,-2.059486 -1.98494,-3.760803 -3.51207,-5.247335 -1.52712,-1.486532 -3.20087,-2.852531 -4.43403,-4.590691 -1.96368,-2.767848 -2.6467,-6.282366 -2.5404,-9.674378 0.1063,-3.392012 0.9442,-6.713448 1.78363,-10.001671 2.33272,-9.137819 4.71755,-18.286476 6.05417,-27.622148 0.8505,-5.940348 1.26659,-12.045881 -0.0435,-17.9020514 -0.65505,-2.9280851 -1.74443,-5.77221114 -3.35136,-8.3060913 -1.60693,-2.5338802 -3.74051,-4.7525083 -6.29651,-6.3240105 -4.83579,-2.9731808 -10.75116,-3.4461398 -16.41724,-3.7928628 -21.28939,-1.302757 -42.64945,-1.915493 -63.94716,-0.756771 -28.30117,1.539751 -56.939287,6.1812811 -84.758373,0.756771 -8.561983,-1.669522 -17.001336,-4.288702 -25.716765,-4.657675 -4.357715,-0.184486 -8.77224,0.207998 -12.925305,1.540576 -4.1530651,1.332577 -8.0417807,3.637781 -10.92562274,6.9099618 -1.76545636,2.0031932 -3.13331666,4.3383497 -4.16306016,6.8019339 -2.0177988,4.8274325 -2.7398599,10.1062171 -2.9087205,15.3356633 -0.1688606,5.229445 0.1960526,10.460174 0.2600215,15.691954 0.087289,7.139018 -0.3849759,14.302187 0.3339217,21.405453 0.7188975,7.103266 2.7401483,14.290569 7.23378987,19.838577 z"
       style="fill:#438bb1;fill-opacity:1;stroke:#000000;stroke-width:0.264583px;stroke-linecap:butt;stroke-linejoin:miter;stroke-opacity:1"
       sodipodi:nodetypes="ssssssssssssssssssss" />
    <path
       inkscape:original-d="m 212.83976,208.41987 c -3.41959,-13.38917 -17.16643,0.36651 -25.74923,0.55013 -8.58279,0.18362 -0.43745,1.02722 -0.65575,1.54118 -0.2183,0.51397 -16.12645,0.79841 -24.18926,1.19798 -8.0628,0.39957 -24.27707,15.06495 -36.41519,22.59777 -12.13812,7.53284 -20.3627,-9.66571 -30.543586,-14.49822 -10.180863,-4.8325 -25.373426,2.39862 -38.059776,3.5983 -12.686363,1.19969 -25.049099,-4.11615 -37.573224,-6.17385 -12.5241227,-2.05774 -22.1974297,-3.05278 -33.295724,-4.57879 -11.0983,-1.52603 5.7163583,6.12178 8.5749513,9.18304 2.858593,3.06125 1.36448,12.89839 2.047141,19.34795 0.682661,6.44956 -2.8185,18.41523 -4.227324,27.62323 -1.408826,9.20799 7.87080903,20.96118 11.8066325,31.44213 3.9358359,10.48098 11.0869542,1.78246 16.6308592,2.67406 5.543894,0.89159 42.572284,-2.26851 63.858751,-3.40238 21.286479,-1.1339 56.350139,-4.16328 84.525659,-6.24457 28.17554,-2.08125 32.8075,-4.63669 49.21167,-6.95467 16.40416,-2.31798 2.47134,-4.65061 3.70743,-6.97555 1.23609,-2.32493 0.40345,-20.50656 0.60559,-30.75949 0.20214,-10.2529 -6.84003,-26.77907 -10.25962,-40.16825 z"
       inkscape:path-effect="#path-effect994"
       id="path992"
       d="m 212.83976,208.41987 c -3.44985,-3.75474 -8.21328,-6.51223 -13.30887,-6.69798 -2.54779,-0.0929 -5.13266,0.46681 -7.35589,1.71468 -2.22322,1.24786 -4.06843,3.19515 -5.08447,5.53343 -0.22255,0.51217 -0.40598,1.04172 -0.65575,1.54118 -0.48652,0.97289 -1.22052,1.81458 -2.08973,2.46856 -0.86922,0.65398 -1.87138,1.12285 -2.91811,1.41878 -2.09346,0.59187 -4.32952,0.49184 -6.46761,0.09 -4.27617,-0.80369 -8.36278,-2.78955 -12.71381,-2.77936 -3.66579,0.009 -7.21381,1.46147 -10.25011,3.51548 -3.03631,2.05401 -5.62411,4.69325 -8.15877,7.34156 -2.53467,2.64832 -5.05613,5.34032 -7.99644,7.52954 -2.94031,2.18921 -6.35985,3.87143 -10.00987,4.21119 -2.85634,0.26588 -5.74826,-0.30165 -8.42493,-1.33355 -2.67667,-1.0319 -5.15593,-2.51746 -7.52906,-4.12919 -4.74625,-3.22344 -9.21493,-7.02787 -14.589596,-9.03548 -6.06479,-2.2654 -12.795599,-2.03811 -19.166189,-0.88517 -6.37059,1.15294 -12.550128,3.18955 -18.893587,4.48347 -6.415113,1.30853 -13.035052,1.84987 -19.525432,0.98912 -6.490381,-0.86075 -12.858511,-3.17081 -18.047792,-7.16297 -3.06518,-2.35807 -5.668366,-5.2511 -8.444234,-7.94375 -2.7758689,-2.69266 -5.8060928,-5.23795 -9.3947982,-6.67914 -1.79435273,-0.72059 -3.7157675,-1.15283 -5.6494044,-1.15127 -1.9336368,0.002 -3.8796008,0.44643 -5.5679496,1.389 -1.6883488,0.94256 -3.1077768,2.39407 -3.9095728,4.15364 -0.801796,1.75957 -0.960324,3.82479 -0.329765,5.65273 0.690443,2.00153 2.237312,3.58352 3.8571284,4.94698 1.619816,1.36347 3.3757776,2.59845 4.7178229,4.23606 2.126257,2.59453 3.0373796,6.01549 3.1571053,9.36783 0.1197258,3.35235 -0.4910354,6.68323 -1.1099643,9.98012 -1.7196283,9.16006 -3.5252709,18.32963 -4.227324,27.62323 -0.4472273,5.92028 -0.4300824,11.97638 1.273576,17.66385 0.8518293,2.84373 2.1263629,5.57388 3.8877274,7.96344 1.76136459,2.38957 4.0179284,4.4331 6.6453291,5.81484 5.0228009,2.64147 10.9559482,2.70956 16.6308592,2.67406 21.327418,-0.13341 42.680721,-0.87897 63.858751,-3.40238 28.141619,-3.35313 56.414989,-9.8479 84.525659,-6.24457 8.64752,1.10847 17.23387,3.17163 25.95005,2.98012 4.35809,-0.0958 8.73567,-0.76864 12.79397,-2.35995 4.0583,-1.59132 7.7925,-4.13309 10.46765,-7.57484 1.62314,-2.08828 2.83812,-4.47759 3.70743,-6.97555 1.69947,-4.88341 2.08091,-10.13709 1.90868,-15.3049 -0.17224,-5.16781 -0.88166,-10.30111 -1.30309,-15.45459 -0.57504,-7.03186 -0.61632,-14.12481 -1.81532,-21.07751 -1.199,-6.95271 -3.67083,-13.8954 -8.4443,-19.09074 z"
       style="fill:#f505cc;fill-opacity:1;stroke:#000000;stroke-width:0.264583px;stroke-linecap:butt;stroke-linejoin:miter;stroke-opacity:1" />
    <path
       sodipodi:nodetypes="ssssssscssssssssssss"
       style="fill:#438bb1;fill-opacity:1;stroke:#000000;stroke-width:0.264583px;stroke-linecap:butt;stroke-linejoin:miter;stroke-opacity:1"
       d="m 213.8981,209.30472 c -3.48216,-3.72835 -8.23269,-6.49611 -13.33036,-6.69549 -2.54884,-0.0997 -5.13753,0.45443 -7.36101,1.70448 -2.22349,1.25005 -4.0645,3.20841 -5.05786,5.55782 -0.22307,0.52759 -0.4041,1.07335 -0.65575,1.58792 -0.47834,0.97813 -1.2076,1.82599 -2.07426,2.48511 -0.86666,0.65913 -1.86839,1.13215 -2.91544,1.43086 -2.09411,0.59741 -4.33322,0.49738 -6.47316,0.0938 -4.27988,-0.80711 -8.37117,-2.80295 -12.7264,-2.77547 -3.70142,0.0234 -7.27257,1.53607 -10.30447,3.65942 -3.0319,2.12336 -5.59185,4.84082 -8.09885,7.56405 -2.50701,2.72322 -5.00268,5.48959 -7.94131,7.74027 -2.93862,2.25068 -6.38458,3.98077 -10.07056,4.31935 -2.87475,0.26406 -5.78396,-0.33001 -8.4656,-1.39899 -2.68164,-1.06897 -5.15473,-2.60145 -7.51734,-4.26036 -4.72522,-3.31782 -9.1645,-7.22498 -14.560652,-9.27857 -6.05556,-2.30454 -12.80273,-2.05515 -19.172049,-0.86667 -6.369319,1.18847 -12.540673,3.27195 -18.887727,4.57411 -6.421067,1.31734 -13.055069,1.82585 -19.547291,0.92223 -6.492223,-0.90362 -12.847674,-3.26447 -18.025933,-7.28332 -3.040771,-2.35994 -5.62795,-5.24174 -8.388675,-7.9239 -2.760725,-2.68217 -5.7744431,-5.21636 -9.3420041,-6.66139 -1.7837804,-0.72252 -3.69374063,-1.16072 -5.6182657,-1.17109 -1.9245252,-0.0104 -3.8638121,0.41629 -5.5542884,1.33618 -1.6904763,0.91989 -3.1214028,2.34403 -3.9488728,4.08161 -0.827471,1.73759 -1.026749,3.78686 -0.443618,5.62094 0.652357,2.05182 2.195721,3.69279 3.8223395,5.10333 1.6266181,1.41055 3.3988057,2.68407 4.7526112,4.3582 2.1711855,2.68492 3.0879583,6.21038 3.19864316,9.66155 0.11068486,3.45117 -0.52271766,6.87797 -1.15150216,10.27318 -1.7474005,9.43534 -3.4818885,18.89418 -4.227324,28.46096 -0.4735153,6.07701 -0.5330812,12.2905 1.1411086,18.1515 0.837095,2.9305 2.1093993,5.7507 3.8912031,8.2233 1.78180377,2.47259 4.082424,4.59181 6.7743208,6.02088 5.0164518,2.66313 10.9513608,2.77402 16.6308598,2.75515 21.328794,-0.0709 42.664684,-1.11097 63.858751,-3.50555 28.097745,-3.17459 56.612025,-8.71781 84.388935,-3.42585 8.03645,1.53108 15.95353,3.96484 24.12593,4.34009 4.08619,0.18762 8.22598,-0.15205 12.13459,-1.35826 3.90862,-1.2062 7.58429,-3.30807 10.35324,-6.31891 3.5261,-3.83414 5.40921,-8.9181 6.44207,-14.02371 2.10077,-10.38449 1.00027,-21.10485 0.60559,-31.69235 -0.27104,-7.27084 -0.20787,-14.58974 -1.43417,-21.76155 -1.2263,-7.1718 -3.85917,-14.30749 -8.82545,-19.62488 z"
       id="path959"
       inkscape:path-effect="#path-effect961"
       inkscape:original-d="m 213.8981,209.30472 c -3.41959,-13.79523 -17.16643,0.37762 -25.74923,0.56681 -8.58279,0.18919 -0.43745,1.05837 -0.65575,1.58792 -0.2183,0.52955 -16.12645,0.82262 -24.18926,1.23432 -8.0628,0.41168 -24.27707,15.52182 -36.41519,23.28309 -12.13812,7.76129 -20.3627,-9.95885 -30.543592,-14.93792 -10.180863,-4.97905 -25.373426,2.47137 -38.059776,3.70744 -12.686363,1.23607 -25.049099,-4.24099 -37.573224,-6.36109 -12.5241233,-2.12015 -22.1974303,-3.14537 -33.295724,-4.71765 -11.0983,-1.57231 5.7163577,6.30743 8.5749507,9.46153 2.858593,3.15409 1.36448,13.28957 2.047141,19.93473 0.682661,6.64515 -2.8185,18.97371 -4.227324,28.46096 -1.408826,9.48724 7.870809,21.59688 11.8066325,32.39568 3.9358359,10.79884 11.0869548,1.83651 16.6308598,2.75515 5.543894,0.91864 42.572284,-2.3373 63.858751,-3.50555 21.286485,-1.16829 56.213415,-1.28144 84.388935,-3.42585 28.17554,-2.14437 30.20959,-0.9488 46.61376,-3.33708 16.40416,-2.38829 5.20598,-11.62827 6.44207,-14.02371 1.23609,-2.39544 0.40345,-21.12847 0.60559,-31.69235 0.20214,-10.56383 -6.84003,-27.59119 -10.25962,-41.38643 z" />
  </g>
</svg>
